<svg xmlns="http://www.w3.org/2000/svg" viewBox="0 0 24 28" width="24" height="28">
  <defs>
    <linearGradient id="g" x1="0" y1="0" x2="0" y2="1">
      <stop offset="0" stop-color="#60a5fa"/>
      <stop offset="1" stop-color="#1d4ed8"/>
    </linearGradient>
    <linearGradient id="h" x1="0" y1="0" x2="1" y2="1">
      <stop offset="0" stop-color="#ffffff" stop-opacity="0.35"/>
      <stop offset="0.6" stop-color="#ffffff" stop-opacity="0"/>
    </linearGradient>
  </defs>
  <path d="M12 1.2 3 5.1v7.4c0 6.4 3.9 12 9 14.3 5.1-2.3 9-7.9 9-14.3V5.1z" fill="#0f172a" opacity="0.55"/>
  <path d="M12 2 3.9 5.5v7c0 5.9 3.6 11.1 8.1 13.2 4.5-2.1 8.1-7.3 8.1-13.2v-7z" fill="url(#g)"/>
  <path d="M12 2 3.9 5.5v7c0 2 .4 3.9 1.1 5.7C9 15 12 9 12 2z" fill="url(#h)"/>
  <path d="M8.6 12.2a3.6 3.6 0 0 1 6.2-1.8M15.4 14.2a3.6 3.6 0 0 1-6.2 1.8" stroke="#ffffff" stroke-width="2" stroke-linecap="round" fill="none"/><path d="M15.2 8.6v2.6h-2.6M8.8 17.8v-2.6h2.6" stroke="#ffffff" stroke-width="2" stroke-linecap="round" stroke-linejoin="round" fill="none"/>
</svg>
